# xmcd
#
# Track frame offsets:
#      150
#      3764
#      25633
#      49827
#      55188
#      76431
#      99816
#      120569
#      123349
#      145015
#      167857
#      187449
#      209694
#      236481
#      259730
#      264662
#      284133
#      287841
#      313968
# 
# Disc length: 4520 seconds
#
# Revision: 13
# Processed by: cddbd v1.4PL0 Copyright (c) Steve Scherf et al.
#
# Submitted via: FreeRIP 1.21
#
DISCID=1c11a613
DTITLE=D-12 - Devil's Night
DYEAR=2001
DGENRE=Rap
TTITLE0=Another Public Service Announcement
TTITLE1=Shit Can Happen
TTITLE2=Pistol Pistol
TTITLE3=Bizarre (Skit)
TTITLE4=Nasty Mind
TTITLE5=Ain't Nuttin' But Music
TTITLE6=American Psycho
TTITLE7=That's How (Skit)
TTITLE8=That's How...
TTITLE9=Purple Pills
TTITLE10=Fight Music
TTITLE11=Instigator
TTITLE12=Pimp Like Me
TTITLE13=Blow My Buzz
TTITLE14=Obie Trice (Skit)
TTITLE15=Devil's Night
TTITLE16=Steve Berman (Skit)
TTITLE17=Revelation
TTITLE18=Girls
EXTD=YEAR: 2001 ID3G: 15
EXTT0=
EXTT1=
EXTT2=Produced by Eminem
EXTT3=
EXTT4=Produced by Dr. Dre
EXTT5=Produced by Dr. Dre
EXTT6=Produced by Eminem
EXTT7=
EXTT8=
EXTT9=Produced by Eminem
EXTT10=Produced by Dr. Dre
EXTT11=Produced by Eminem
EXTT12=Produced by Eminem
EXTT13=Produced by Eminem
EXTT14=
EXTT15=Produced by Eminem
EXTT16=
EXTT17=Produced by Dr. Dre
EXTT18=Produced by Eminem\nLimp Bizkit Diss Song
PLAYORDER=
